<?xml version="1.0" standalone="no"?>
<!DOCTYPE svg PUBLIC "-//W3C//DTD SVG 20010904//EN"
 "http://www.w3.org/TR/2001/REC-SVG-20010904/DTD/svg10.dtd">
<svg version="1.0" xmlns="http://www.w3.org/2000/svg"
 width="260.000000pt" height="260.000000pt" viewBox="0 0 260.000000 260.000000"
 preserveAspectRatio="xMidYMid meet">
<metadata>
Created by potrace 1.14, written by Peter Selinger 2001-2017
</metadata>
<g transform="translate(0.000000,260.000000) scale(0.100000,-0.100000)"
fill="#000000" stroke="none">
<path d="M392 1621 c2 -4 42 -91 90 -192 48 -101 147 -313 221 -471 l134 -287
-43 -3 c-39 -3 -15 -13 224 -95 l268 -93 268 93 c257 88 266 92 216 95 -28 2
-50 6 -48 10 2 4 108 218 236 475 127 257 232 469 232 472 0 3 -405 5 -901 5
-502 0 -899 -4 -897 -9z"/>
</g>
</svg>
